<svg width="180" height="180" viewBox="0 0 180 180" fill="none" xmlns="http://www.w3.org/2000/svg">
<mask id="mask0_461_622" style="mask-type:alpha" maskUnits="userSpaceOnUse" x="0" y="0" width="180" height="180">
<rect width="180" height="180" fill="#D9D9D9"/>
</mask>
<g mask="url(#mask0_461_622)">
<path d="M90 162C88.002 162 86.064 161.595 84.186 160.785C82.314 159.969 80.688 158.874 79.308 157.5L22.5 100.692C21.126 99.312 20.031 97.686 19.215 95.814C18.405 93.936 18 91.998 18 90C18 88.002 18.405 86.064 19.215 84.186C20.031 82.314 21.126 80.688 22.5 79.308L79.308 22.5C80.688 21.126 82.314 20.031 84.186 19.215C86.064 18.405 88.002 18 90 18C91.998 18 93.936 18.405 95.814 19.215C97.686 20.031 99.312 21.126 100.692 22.5L157.5 79.308C158.874 80.688 159.969 82.314 160.785 84.186C161.595 86.064 162 88.002 162 90C162 91.998 161.595 93.936 160.785 95.814C159.969 97.686 158.874 99.312 157.5 100.692L100.692 157.5C99.312 158.874 97.686 159.969 95.814 160.785C93.936 161.595 91.998 162 90 162ZM90 149.058L149.058 90L90 30.942L30.942 90L90 149.058ZM83.25 99H96.75V54H83.25V99ZM90 121.5C91.872 121.5 93.465 120.843 94.779 119.529C96.093 118.215 96.75 116.622 96.75 114.75C96.75 112.878 96.093 111.285 94.779 109.971C93.465 108.657 91.872 108 90 108C88.128 108 86.535 108.657 85.221 109.971C83.907 111.285 83.25 112.878 83.25 114.75C83.25 116.622 83.907 118.215 85.221 119.529C86.535 120.843 88.128 121.5 90 121.5Z" fill="#1B2C65"/>
</g>
</svg>
