<?xml version="1.0" encoding="utf-8"?>
<!-- Generator: Adobe Illustrator 26.0.3, SVG Export Plug-In . SVG Version: 6.00 Build 0)  -->
<svg version="1.1" xmlns="http://www.w3.org/2000/svg" xmlns:xlink="http://www.w3.org/1999/xlink" x="0px" y="0px"
	 viewBox="0 0 1440 900" style="enable-background:new 0 0 1440 900;" xml:space="preserve">
<style type="text/css">
	.st0{fill:#FFFFFF;}
</style>
<g id="Fondo">
</g>
<g id="Logos">
	<g>
		<polygon class="st0" points="321.72,339.94 321.72,463.58 386.49,463.58 386.49,440.72 349.13,440.72 349.13,339.94 		"/>
		<path class="st0" d="M719.55,421.68c-0.36,31.39,26.25,45.31,54.67,45.31c34.89,0,53.41-17.48,53.41-40.85
			c0-28.9-28.77-34.79-38.12-37.1c-32.19-8.21-38.31-9.46-38.31-19.27c0-10.71,10.43-14.45,19.43-14.45
			c13.48,0,24.45,3.93,25.35,19.27h27.33c0-29.43-24.63-41.03-51.43-41.03c-23.2,0-48.01,12.49-48.01,38.53
			c0,23.9,19.24,31.22,38.3,36.21c18.88,4.99,38.12,7.31,38.12,21.05c0,13.02-15.1,15.88-24.99,15.88
			c-15.11,0-28.41-6.6-28.41-23.55H719.55"/>
		<rect x="939.74" y="339.92" class="st0" width="27.34" height="123.61"/>
		<rect x="981.07" y="339.92" class="st0" width="27.21" height="123.61"/>
		<path class="st0" d="M1046.92,403.75c0.38-7.52,5.3-20.68,22.36-20.68c13.08,0,18.94,7.14,21.41,20.68H1046.92 M1117.6,422.33
			c2.76-32.22-14.21-59.37-47.56-59.37c-29.75,0-50.03,22.18-50.03,51.32c0,30.08,19.14,51.13,50.03,51.13
			c22.17,0,38.27-9.78,45.85-32.71h-23.68c-1.71,6.02-10.43,12.59-21.22,12.59c-14.97,0-23.31-6.04-24.06-22.96H1117.6z"/>
		<path class="st0" d="M863.75,395.91c0.95-10.56,7.6-14.7,17.86-14.7c9.5,0,17.48,1.7,17.48,13.19c0,10.93-15.39,10.37-31.91,12.82
			c-16.72,2.26-33.44,7.54-33.44,29.59c0,19.98,14.81,29.22,33.44,29.22c11.97,0,24.51-3.21,33.06-12.06
			c0.19,3.21,0.95,6.41,1.9,9.42h27.36c-2.47-3.96-3.42-12.82-3.42-21.67v-50.7c0-23.37-23.56-27.71-43.13-27.71
			c-22.04,0-44.65,7.54-46.17,32.61H863.75 M899.09,425.69c0,5.85-0.76,22.43-21.85,22.43c-8.74,0-16.53-2.45-16.53-12.44
			c0-9.8,7.6-12.63,15.96-14.32c8.36-1.51,17.86-1.7,22.42-5.66V425.69z"/>
		<path class="st0" d="M605.07,236.63L605.07,236.63L605.07,236.63 M595.81,274.76l13.32,51.71c2.1,8.16,9.45,13.85,17.87,13.85
			h59.76l-40.33,26.9c-7.73,5.16-10.42,15.31-6.26,23.62l34.2,68.32l-69.06-34.51c-2.55-1.27-5.4-1.94-8.25-1.94
			c-4.93,0-9.56,1.92-13.05,5.4l-65.23,65.19l34.96-104.77c2.52-7.55-0.07-15.83-6.43-20.61l-57.45-43.09l72.07,14.4
			c1.19,0.24,2.41,0.36,3.62,0.36c8.54,0,15.92-5.8,17.93-14.1L595.81,274.76 M595.53,230c-1.83,0-3.67,1.1-4.2,3.3l-21.59,88.86
			c-0.48,1.97-2.24,3.3-4.19,3.3c-0.28,0-0.57-0.03-0.85-0.08l-114.52-22.89c-0.32-0.06-0.63-0.09-0.93-0.09
			c-3.92,0-5.93,5.22-2.51,7.78l92.08,69.06c1.49,1.12,2.1,3.06,1.51,4.82L492.2,528.29c-1.04,3.12,1.46,5.71,4.15,5.71
			c1.04,0,2.11-0.39,3.01-1.29l94.66-94.6c0.83-0.83,1.93-1.27,3.05-1.27c0.66,0,1.32,0.15,1.93,0.46l95.42,47.68
			c0.65,0.33,1.31,0.47,1.95,0.47c2.97,0,5.37-3.21,3.84-6.27l-47.39-94.67c-0.97-1.95-0.35-4.32,1.46-5.53l67.31-44.89
			c3.55-2.37,1.88-7.91-2.4-7.91h-92.19c-1.97,0-3.69-1.33-4.18-3.24l-23.11-89.71C599.16,231.07,597.34,230,595.53,230"/>
		<path class="st0" d="M424.22,395.97c0.94-10.54,7.58-14.68,17.83-14.68c9.48,0,17.45,1.69,17.45,13.17
			c0,10.92-15.36,10.35-31.87,12.8c-16.7,2.26-33.39,7.53-33.39,29.54c0,19.95,14.79,29.17,33.39,29.17c11.95,0,24.47-3.2,33-12.05
			c0.19,3.2,0.95,6.4,1.9,9.41h27.32c-2.47-3.95-3.42-12.8-3.42-21.64v-50.62c0-23.33-23.52-27.66-43.06-27.66
			c-22,0-44.58,7.53-46.1,32.55H424.22 M459.5,425.7c0,5.84-0.76,22.39-21.81,22.39c-8.73,0-16.5-2.44-16.5-12.42
			c0-9.78,7.59-12.61,15.93-14.3c8.35-1.51,17.83-1.69,22.39-5.65V425.7z"/>
		<path class="st0" d="M472.79,519.81H321.72c-0.95,0-1.72-0.77-1.72-1.72c0-0.95,0.77-1.72,1.72-1.72h151.07
			c0.95,0,1.72,0.77,1.72,1.72C474.51,519.04,473.74,519.81,472.79,519.81"/>
		<path class="st0" d="M1118.28,520.16H541.46c-0.95,0-1.72-0.77-1.72-1.72c0-0.95,0.77-1.71,1.72-1.71h576.82
			c0.95,0,1.72,0.77,1.72,1.71C1120,519.39,1119.23,520.16,1118.28,520.16"/>
		<g>
			<path class="st0" d="M383.39,622.24c-3.42-1.92-7.19-3.47-11.29-4.65c-4.1-1.18-8.24-2.26-12.38-3.22
				c-4.15-0.96-7.92-2.01-11.29-3.15c-3.38-1.14-6.11-2.67-8.21-4.58c-2.1-1.92-3.15-4.47-3.15-7.67c0-2.74,0.77-5.2,2.33-7.39
				c1.55-2.19,4.02-3.95,7.39-5.27c3.37-1.32,7.67-1.98,12.87-1.98c4.29,0,8.71,0.62,13.28,1.85c4.56,1.23,8.94,3.17,13.14,5.82
				l4.79-11.63c-4.11-2.74-8.92-4.86-14.44-6.36c-5.52-1.51-11.06-2.26-16.63-2.26c-8.48,0-15.49,1.28-21.01,3.83
				c-5.52,2.55-9.6,5.93-12.25,10.13c-2.65,4.2-3.97,8.81-3.97,13.82c0,5.11,1.05,9.29,3.15,12.52c2.1,3.24,4.83,5.84,8.21,7.8
				c3.38,1.96,7.14,3.54,11.29,4.72c4.15,1.19,8.28,2.26,12.38,3.22c4.11,0.96,7.87,2.01,11.29,3.15c3.42,1.14,6.18,2.69,8.28,4.65
				c2.1,1.96,3.15,4.54,3.15,7.73c0,2.65-0.8,5.04-2.39,7.19c-1.6,2.14-4.09,3.83-7.46,5.06c-3.38,1.23-7.8,1.85-13.28,1.85
				c-6.02,0-11.86-1.03-17.52-3.08c-5.66-2.05-10.36-4.68-14.1-7.87l-5.34,11.63c3.92,3.47,9.24,6.32,15.94,8.55
				c6.71,2.24,13.75,3.35,21.14,3.35c8.49,0,15.49-1.28,21.01-3.83c5.52-2.55,9.65-5.93,12.38-10.13c2.74-4.2,4.11-8.76,4.11-13.69
				c0-5.02-1.05-9.15-3.15-12.39C389.57,626.73,386.81,624.16,383.39,622.24z"/>
			<path class="st0" d="M454.63,572.97l-43.39,95.8h15.19l10.22-23.4h50.17l10.22,23.4h15.47l-43.39-95.8H454.63z M441.86,633.46
				l19.89-45.53l19.89,45.53H441.86z"/>
			<polygon class="st0" points="552.21,572.97 537.56,572.97 537.56,668.77 603.8,668.77 603.8,656.04 552.21,656.04 			"/>
			<polygon class="st0" points="645,572.97 630.35,572.97 630.35,668.77 696.59,668.77 696.59,656.04 645,656.04 			"/>
			<polygon class="st0" points="737.79,626.35 785.55,626.35 785.55,613.89 737.79,613.89 737.79,585.7 791.44,585.7 791.44,572.97 
				723.14,572.97 723.14,668.77 793.35,668.77 793.35,656.04 737.79,656.04 			"/>
			<polygon class="st0" points="894.63,642.66 838.38,572.97 826.2,572.97 826.2,668.77 840.84,668.77 840.84,599.06 897.23,668.77 
				909.27,668.77 909.27,572.97 894.63,572.97 			"/>
			<polygon class="st0" points="963.2,626.35 1010.96,626.35 1010.96,613.89 963.2,613.89 963.2,585.7 1016.84,585.7 
				1016.84,572.97 948.55,572.97 948.55,668.77 1018.76,668.77 1018.76,656.04 963.2,656.04 			"/>
			<polygon class="st0" points="1038.2,572.97 1038.2,585.7 1070.77,585.7 1070.77,668.77 1085.41,668.77 1085.41,585.7 
				1117.99,585.7 1117.99,572.97 			"/>
		</g>
	</g>
</g>
</svg>
