<?xml version="1.0" encoding="utf-8"?>
<!-- Generator: Adobe Illustrator 26.0.3, SVG Export Plug-In . SVG Version: 6.00 Build 0)  -->
<svg version="1.1" id="Layer_1" xmlns="http://www.w3.org/2000/svg" xmlns:xlink="http://www.w3.org/1999/xlink" x="0px" y="0px"
	 viewBox="0 0 512 512" style="enable-background:new 0 0 512 512;" xml:space="preserve">
<style type="text/css">
	.st0{fill:#1B2C65;}
</style>
<path class="st0" d="M256,504.5c-34.6,0-67-6.5-97.2-19.4s-56.5-30.6-78.9-53s-40-48.8-52.7-79.2C14.4,322.4,8,289.9,8,255.3
	c0-34.2,6.4-66.4,19.1-96.6c12.8-30.2,30.3-56.4,52.7-78.6s48.7-39.7,78.9-52.4C189,14.9,221.4,8.5,256,8.5s67,6.4,97.2,19.2
	c30.2,12.8,56.5,30.2,78.9,52.4c22.4,22.2,40,48.4,52.7,78.6c12.8,30.2,19.1,62.6,19.1,97.2c0,34.6-6.4,67-19.1,97.2
	c-12.8,30.2-30.3,56.6-52.7,78.9c-22.4,22.4-48.8,40.1-79.2,53C322.5,498,290.2,504.5,256,504.5z M352,162.8h80.7
	c-12.2-23.6-28.6-43.7-49.2-60.4c-20.6-16.7-43.9-28.8-69.8-36.2c8.6,13.3,16,27.9,22.1,43.6C341.9,125.5,347.3,143.2,352,162.8z
	 M204.8,162.8h103.1c-4.3-18.5-11-36.8-20-55.1c-9-18.3-19.6-35.2-31.8-51c-11.4,13-21,27.7-28.9,44.2
	C219.3,117.5,211.8,138.1,204.8,162.8z M64,306.6h88.4c-1.2-9.4-2-18.2-2.4-26.2c-0.4-8.1-0.6-16.2-0.6-24.5c0-9.4,0.3-18,0.9-25.6
	c0.6-7.7,1.3-15.6,2.1-23.9H64c-2.8,8.2-4.5,16.1-5.3,23.6c-0.8,7.5-1.2,16.1-1.2,25.9c0,9.4,0.4,18.1,1.2,25.9
	C59.5,289.7,61.2,297.9,64,306.6z M198.3,446.2c-8.6-13.4-16-27.9-22.1-43.6c-6.1-15.7-11.3-33.4-15.6-53H79.9
	c13,24.4,28.9,44.1,47.7,59.2C146.4,423.9,170,436.4,198.3,446.2z M79.9,162.8h80.7c4.3-18.9,9.4-36,15.3-51.5S189,81,197.7,66.8
	c-25.5,7.1-48.5,18.8-68.9,35.3S92,138.9,79.9,162.8z M256,455c12.2-13.8,22.4-29.3,30.6-46.5s15.1-36.9,20.6-58.9H204.8
	c5.5,20.8,12.4,40.2,20.6,58C233.6,425.5,243.8,441.3,256,455z M196.5,306.6h119.6c1.6-10.2,2.6-19.2,2.9-26.8
	c0.4-7.7,0.6-15.6,0.6-23.9c0-8.2-0.2-16-0.6-23.3c-0.4-7.3-1.4-16-2.9-26.2H196.5c-1.6,10.2-2.6,19-3,26.2
	c-0.4,7.3-0.6,15-0.6,23.3c0,8.2,0.2,16.2,0.6,23.9C194,287.4,194.9,296.4,196.5,306.6z M314.3,446.2c24.7-8.2,47.4-20.7,68-37.4
	c20.6-16.7,37.4-36.4,50.4-59.2h-80.1c-4.7,19.2-10.2,36.8-16.5,52.7C329.8,418.2,322.6,432.8,314.3,446.2z M359.7,306.6h89
	c2.4-8.6,3.9-16.9,4.7-24.7c0.8-7.9,1.2-16.5,1.2-25.9c0-9.8-0.4-18.4-1.2-25.9c-0.8-7.5-2.4-15.3-4.7-23.6h-88.4
	c0.8,11.4,1.4,20.7,1.8,28c0.4,7.3,0.6,14.4,0.6,21.5c0,8.2-0.3,16.2-0.9,23.9C361.2,287.4,360.5,296.4,359.7,306.6z"/>
</svg>
