<svg width="128" height="128" viewBox="0 0 128 128" fill="none" xmlns="http://www.w3.org/2000/svg">
<mask id="mask0_348_53" style="mask-type:alpha" maskUnits="userSpaceOnUse" x="0" y="0" width="128" height="128">
<rect width="128" height="128" fill="#C4C4C4"/>
</mask>
<g mask="url(#mask0_348_53)">
<path d="M28.5 50.9591C31.6677 50.9591 34.3812 49.8363 36.6405 47.5908C38.8952 45.3499 40.0226 42.6529 40.0226 39.5C40.0226 36.3517 38.8952 33.6547 36.6405 31.4092C34.3812 29.1682 31.6677 28.0478 28.5 28.0478C25.3277 28.0478 22.6142 29.1682 20.3595 31.4092C18.1002 33.6547 16.9705 36.3517 16.9705 39.5C16.9705 42.6529 18.1002 45.3499 20.3595 47.5908C22.6142 49.8363 25.3277 50.9591 28.5 50.9591ZM20.7192 59.5517C19.6633 59.263 18.6535 58.8804 17.6898 58.4038C16.7308 57.9272 15.7717 57.3062 14.8127 56.5409L8.7609 58.5481C7.99089 58.7406 7.26929 58.7177 6.5961 58.4794C5.92292 58.2365 5.39497 57.7828 5.01227 57.1183L1.55412 51.241C1.07459 50.5765 0.906297 49.8616 1.04923 49.0962C1.19217 48.3309 1.55182 47.71 2.12818 47.2334L6.74134 43.2258C6.64451 42.1763 6.5961 40.9344 6.5961 39.5C6.5961 38.0702 6.64451 36.8283 6.74134 35.7742L2.12818 31.7666C1.55182 31.29 1.19217 30.6691 1.04923 29.9038C0.906297 29.143 1.07459 28.4281 1.55412 27.759L5.01227 21.8886C5.39497 21.2195 5.92292 20.7658 6.5961 20.5275C7.26929 20.2892 7.99089 20.264 8.7609 20.4519L14.8127 22.4591C15.7717 21.6938 16.7308 21.0728 17.6898 20.5962C18.6535 20.1196 19.6633 19.7393 20.7192 19.4551L21.8742 13.5778C22.0632 12.8171 22.4459 12.1961 23.0223 11.7149C23.5987 11.2383 24.2718 11 25.0419 11H31.9582C32.7236 11 33.3967 11.2383 33.9777 11.7149C34.5495 12.1961 34.9322 12.8171 35.1258 13.5778L36.2808 19.4551C37.3367 19.7393 38.3442 20.1196 39.3033 20.5962C40.2669 21.0728 41.2283 21.6938 42.1873 22.4591L48.2391 20.4519C49.0091 20.264 49.7284 20.2892 50.397 20.5275C51.0702 20.7658 51.6004 21.2195 51.9877 21.8886L55.4459 27.759C55.9254 28.4281 56.0937 29.143 55.9508 29.9038C55.8032 30.6691 55.4413 31.29 54.8649 31.7666L50.2587 35.7742C50.3509 36.6358 45.8478 35.6926 45.8478 37.3149C45.8478 38.9372 44.8594 38.6384 44.7672 39.5V41.0742C45.3435 41.5508 44.6196 41.3829 44.7672 42.1482C44.9101 42.9136 44.7064 44.1689 44.2268 44.8334L43.1462 45.3705C42.0655 44.8334 42.1983 46.2017 41.5252 46.4446C40.852 46.6874 40.9848 47.2334 40.4445 48.0557L38.8235 49.6668C37.8644 50.4321 37.2025 52.889 37.2025 52.889C36.2434 53.3656 37.3367 59.263 36.2808 59.5517L35.1258 65.4222C34.9322 66.1875 34.5495 66.8085 33.9777 67.2851C33.3967 67.7617 32.7236 68 31.9582 68H25.0419C24.2718 68 23.5987 67.7617 23.0223 67.2851C22.4459 66.8085 22.0632 66.1875 21.8742 65.4222L20.7192 59.5517Z" fill="#1B2C65"/>
<path d="M103.536 105.501V64.3734C103.536 55.8196 99.9395 51.4555 92.9569 51.4555C85.8694 51.4555 82.2734 55.7497 82.2734 64.3734V105.501H61.3253V64.3734C61.3253 55.8196 57.834 51.4555 50.8164 51.4555C43.729 51.4555 40.2376 55.7497 40.2376 64.3734V105.501H19.3594V61.9644C19.3594 52.9917 22.4667 46.2185 28.7162 41.6448C34.1627 37.525 41.6342 35.5 50.991 35.5C60.4176 35.5 67.4352 37.909 71.939 42.8318C75.8493 38.0138 82.832 35.5 93.0616 35.5C102.418 35.5 109.82 37.525 115.267 41.6448C121.481 46.2534 124.623 53.0266 124.623 61.9644V105.501H103.536Z" fill="#1B2C65"/>
</g>
</svg>
